# AST/ASF file generated using VICON BodyLanguage
# -----------------------------------------------
:version 1.10
:name VICON
:units
  mass 1.0
  length 0.45
  angle deg
:documentation
   .ast/.asf automatically generated from VICON data using
   VICON BodyBuilder and BodyLanguage model FoxedUp or BRILLIANT.MOD
:root
   order TX TY TZ RX RY RZ
   axis XYZ
   position 0 0 0  
   orientation 0 0 0 
:bonedata
  begin
     id 1 
     name lhipjoint
     direction 0.646657 -0.683706 0.338203 
     length 2.4948 
     axis 0 0 0  XYZ
  end
  begin
     id 2 
     name lfemur
     direction 0.34202 -0.939693 0  
     length 6.79491  
     axis 0 0 20  XYZ
    dof rx ry rz
    limits (-160.0 20.0)
           (-70.0 70.0)
           (-60.0 70.0)
  end
  begin
     id 3 
     name ltibia
     direction 0.34202 -0.939693 0   
     length 7.56807   
     axis 0 0 20   XYZ
    dof rx
    limits (-10.0 170.0)
  end
  begin
     id 4 
     name lfoot
     direction 0.0679796 -0.186772 0.980048   
     length 2.53018   
     axis -90 7.62852e-016 20   XYZ
    dof rx rz
    limits (-45.0 90.0)
           (-70.0 20.0)
  end
  begin
     id 5 
     name ltoes
     direction 1.53625e-011 -4.21881e-011 1   
     length 1.26912   
     axis -90 7.62852e-016 20   XYZ
    dof rx
    limits (-90.0 20.0)
  end
  begin
     id 6 
     name rhipjoint
     direction -0.618868 -0.704065 0.348274   
     length 2.42265  
     axis 0 0 0  XYZ 
  end
  begin
     id 7 
     name rfemur
     direction -0.34202 -0.939693 0   
     length 6.73814   
     axis 0 0 -20   XYZ
    dof rx ry rz
    limits (-160.0 20.0)
           (-70.0 70.0)
           (-70.0 60.0)
  end
  begin
     id 8 
     name rtibia
     direction -0.34202 -0.939693 0   
     length 7.66799   
     axis 0 0 -20   XYZ
    dof rx
    limits (-10.0 170.0)
 end
 begin
     id 9 
     name rfoot
     direction -0.0727352 -0.199838 0.977125   
     length 2.57224  
     axis -90 -7.62852e-016 -20   XYZ
    dof rx rz
    limits (-45.0 90.0)
           (-20.0 70.0)
  end
  begin
     id 10 
     name rtoes
     direction -1.53501e-011 -4.21858e-011 1   
     length 1.28858   
     axis -90 -7.62852e-016 -20   XYZ
    dof rx
    limits (-90.0 20.0)
  end
  begin
     id 11 
     name lowerback
     direction -0.0172471 0.995767 -0.0902851   
     length 2.20206   
     axis 0 0 0   XYZ
    dof rx ry rz
    limits (-20.0 45.0)
           (-30.0 30.0)
           (-30.0 30.0)
  end
  begin
     id 12 
     name upperback
     direction -0.000110737 0.999714 0.0239043   
     length 2.19523   
     axis 0 0 0   XYZ
    dof rx ry rz
    limits (-20.0 45.0)
           (-30.0 30.0)
           (-30.0 30.0)
  end
  begin
     id 13 
     name thorax
     direction 0.00704869 0.997783 0.0661741   
     length 2.21977   
     axis 0 0 0   XYZ
    dof rx ry rz
    limits (-20.0 45.0)
           (-30.0 30.0)
           (-30.0 30.0)
  end
  begin
     id 14 
     name lowerneck
     direction -0.00407501 0.995527 0.0943846   
     length 1.83142   
     axis 0 0 0   XYZ
    dof rx ry rz
    limits (-20.0 45.0)
           (-30.0 30.0)
           (-30.0 30.0)
  end
  begin
     id 15 
     name upperneck
     direction 0.0640586 0.986486 -0.150807   
     length 1.84616   
     axis 0 0 0   XYZ
    dof rx ry rz
    limits (-20.0 45.0)
           (-30.0 30.0)
           (-30.0 30.0)
  end
  begin
     id 16
     name head
     direction 0.0188017 0.99791 -0.0618239  
     length 1.85932  
     axis 0 0 0   XYZ
    dof rx ry rz
    limits (-20.0 45.0)
           (-30.0 30.0)
           (-30.0 30.0)
  end
  begin
     id 17 
     name lclavicle
     direction 0.976074 0.206905 0.066852  
     length 3.81043  
     axis 0 0 0   XYZ
    dof ry rz
    limits (-20.0 10.0)
           (0.0 20.0)
  end
  begin
     id 18 
     name lhumerus
     direction 1 -4.48971e-011 1.86916e-027   
     length 5.37587   
     axis 180 -30 -90   XYZ
    dof rx ry rz
    limits (-60.0 90.0)
           (-90.0 90.0)
           (-90.0 90.0)
  end
  begin
     id 19
     name lradius
     direction 1 -4.48968e-011 1.69187e-027   
     length 3.35977   
     axis 180 -30 -90   XYZ
    dof rx
    limits (-10.0 170.0)
  end
  begin
     id 20
     name lwrist
     direction 1 -4.48968e-011 5.8978e-027   
     length 1.67988   
     axis -3.27506e-015 90 90   XYZ
    dof ry
    limits (-180.0 0.0)
 end
  begin
     id 21 
     name lhand
     direction 1 -4.49028e-011 1.18071e-026   
     length 0.561859   
     axis -7.52654e-015 90 90   XYZ
    dof rx rz
    limits (-90.0 90.0)
           (-45.0 45.0)
  end
  begin
     id 22 
     name lfingers
     direction 1 -4.48927e-011 2.35758e-026   
     length 0.452985   
     axis -1.50534e-014 90 90   XYZ
    dof rx
    limits (0.0 90.0)
  end
  begin
     id 23
     name lthumb
     direction 0.707107 -6.34898e-011 0.707107   
     length 0.650399   
     axis -90 45 5.69224e-014   XYZ
    dof rx rz
    limits (-45.0 45.0)
           (-45.0 45.0)
  end
  begin
     id 24 
     name rclavicle
     direction -0.988403 0.151789 0.00439714   
     length 3.6942  
     axis 0 0 0   XYZ 
    dof ry rz
    limits (-10.0 20.0)
           (-20.0 0.0)
  end
  begin
     id 25 
     name rhumerus
     direction -1 -4.48978e-011 1.62495e-027  
     length 5.22819   
     axis 180 30 90   XYZ
    dof rx ry rz
    limits (-90.0 60.0)
           (-90.0 90.0)
           (-90.0 90.0)
  end
  begin
     id 26 
     name rradius
     direction -1 -4.48961e-011 3.47796e-027   
     length 3.40764   
     axis 180 30 90   XYZ
    dof rx
    limits (-10.0 170.0)
  end
  begin
     id 27 
     name rwrist
     direction -1 -4.48949e-011 5.89602e-027   
     length 1.70382   
     axis -3.27506e-015 -90 -90   XYZ
    dof ry
    limits (-180.0 0.0)
  end
  begin
     id 28
     name rhand
     direction -1 -4.48977e-011 1.17973e-026   
     length 0.583255   
     axis -7.52654e-015 -90 -90   XYZ
    dof rx rz
    limits (-90.0 90.0)
           (-45.0 45.0)
  end
  begin
     id 29
     name rfingers
     direction -1 -4.49099e-011 2.36408e-026   
     length 0.470235   
     axis -1.50534e-014 -90 -90   XYZ
    dof rx
    limits (0.0 90.0)
  end
  begin
     id 30
     name rthumb
     direction -0.707107 -6.35011e-011 0.707107   
     length 0.675167   
     axis -90 -45 -5.69224e-014   XYZ
    dof rx rz
    limits (-45.0 45.0)
           (-45.0 45.0)
  end
:hierarchy
  begin
    root lhipjoint rhipjoint lowerback
    lhipjoint lfemur
    lfemur ltibia
    ltibia lfoot
    lfoot ltoes
    rhipjoint rfemur
    rfemur rtibia
    rtibia rfoot
    rfoot rtoes
    lowerback upperback
    upperback thorax
    thorax lowerneck lclavicle rclavicle
    lowerneck upperneck
    upperneck head
    lclavicle lhumerus
    lhumerus lradius
    lradius lwrist
    lwrist lhand lthumb
    lhand lfingers
    rclavicle rhumerus
    rhumerus rradius
    rradius rwrist
    rwrist rhand rthumb
    rhand rfingers
  end

#!OML:ASF G:\JayActor3\Patient Classification 1\Patient 1\Session 2\male.ASF
:FULLY-SPECIFIED
:DEGREES
531
root 49.4909 16.6753 -7.64704 12.9416 -86.85 -11.3028
lowerback -2.00652 -1.23252 -2.44722
upperback 5.37132 -1.65484 0.828954
thorax 6.8133 -1.01059 2.10019
lowerneck -1.66351 -10.036 -10.1396
upperneck -4.08664 -13.2004 13.9805
head 0.709662 -6.63411 5.49387
rclavicle 2.44132e-015 -7.7526e-015
rhumerus -32.4329 1.36976 -84.5072
rradius 34.4001
rwrist -9.5638
rhand -23.0462 3.80313
rfingers 7.12502
rthumb 3.3985 -26.1495
lclavicle 2.44132e-015 -7.7526e-015
lhumerus -30.8974 3.19723 84.4627
lradius 34.152
lwrist 15.676
lhand -19.1348 18.9924
lfingers 7.12502
lthumb 7.17502 48.8508
rfemur -13.4478 0.358498 21.4059
rtibia 35.8264
rfoot -25.7673 -9.88963
rtoes 18.3599
lfemur -7.35955 1.07049 -17.9083
ltibia 23.9663
lfoot -14.9149 6.99277
ltoes -8.49375
532
root 49.4908 16.6753 -7.64704 12.8181 -86.8462 -11.1786
lowerback -2.01082 -1.23238 -2.45035
upperback 5.35712 -1.65403 0.830956
thorax 6.80076 -1.00988 2.1042
lowerneck -1.66029 -10.0282 -10.1341
upperneck -4.06957 -13.1911 13.9607
head 0.711106 -6.62895 5.48744
rclavicle 1.44802e-014 -1.49089e-016
rhumerus -32.4371 1.38784 -84.4979
rradius 34.3655
rwrist -9.55806
rhand -23.0445 3.80945
rfingers 7.12502
rthumb 3.40013 -26.1432
lclavicle 1.44802e-014 -1.49089e-016
lhumerus -30.9126 3.16064 84.4631
lradius 34.1387
lwrist 15.666
lhand -19.1209 18.9919
lfingers 7.12502
lthumb 7.18843 48.8498
rfemur -13.4504 0.350041 21.399
rtibia 35.8306
rfoot -25.7669 -9.8877
rtoes 18.3532
lfemur -7.35985 1.06776 -17.9146
ltibia 23.9647
lfoot -14.9131 6.99131
ltoes -8.49872
533
root 49.4907 16.6754 -7.64698 12.73 -86.8488 -11.0876
lowerback -2.0174 -1.23059 -2.45143
upperback 5.34243 -1.65101 0.83256
thorax 6.78879 -1.00795 2.10679
lowerneck -1.65778 -10.0207 -10.1284
upperneck -4.05493 -13.1819 13.9406
head 0.711938 -6.62392 5.48091
rclavicle 4.41675e-015 -4.91992e-015
rhumerus -32.4452 1.41136 -84.4908
rradius 34.338
rwrist -9.55368
rhand -23.0451 3.82196
rfingers 7.12502
rthumb 3.3995 -26.1307
lclavicle 4.41675e-015 -4.91992e-015
lhumerus -30.9262 3.12515 84.4628
lradius 34.1244
lwrist 15.6557
lhand -19.1069 18.9785
lfingers 7.12502
lthumb 7.20195 48.836
rfemur -13.4563 0.343571 21.3919
rtibia 35.8343
rfoot -25.7626 -9.88031
rtoes 18.3524
lfemur -7.36152 1.06607 -17.9212
ltibia 23.9633
lfoot -14.9146 6.99345
ltoes -8.49117
534
root 49.4906 16.6754 -7.64686 12.6933 -86.8556 -11.045
lowerback -2.02707 -1.22756 -2.44996
upperback 5.3278 -1.64642 0.834669
thorax 6.77852 -1.00513 2.10854
lowerneck -1.6613 -10.0133 -10.1227
upperneck -4.04076 -13.1725 13.9215
head 0.713672 -6.61863 5.47436
rclavicle -4.44159e-015 -6.36111e-015
rhumerus -32.4519 1.43637 -84.4845
rradius 34.3136
rwrist -9.54855
rhand -23.0476 3.83797
rfingers 7.12502
rthumb 3.39714 -26.1147
lclavicle -4.44159e-015 -6.36111e-015
lhumerus -30.9382 3.08756 84.4638
lradius 34.1135
lwrist 15.6492
lhand -19.0936 18.9642
lfingers 7.12502
lthumb 7.21476 48.8213
rfemur -13.4661 0.339041 21.3863
rtibia 35.8376
rfoot -25.756 -9.86906
rtoes 18.3544
lfemur -7.36681 1.06193 -17.9268
ltibia 23.9628
lfoot -14.9168 7.00454
ltoes -8.48805
535
root 49.4906 16.6755 -7.64669 12.704 -86.8672 -11.0469
lowerback -2.03746 -1.22265 -2.4462
upperback 5.31136 -1.63936 0.836855
thorax 6.76651 -1.00091 2.10929
lowerneck -1.664 -10.0046 -10.1162
upperneck -4.02652 -13.1613 13.9018
head 0.714991 -6.61247 5.4677
rclavicle -2.87057e-014 3.8266e-015
rhumerus -32.4626 1.46415 -84.4807
rradius 34.2956
rwrist -9.54506
rhand -23.0542 3.85529
rfingers 7.12502
rthumb 3.39071 -26.0975
lclavicle -2.87057e-014 3.8266e-015
lhumerus -30.9516 3.05011 84.4648
lradius 34.1044
lwrist 15.6438
lhand -19.0834 18.9525
lfingers 7.12502
lthumb 7.22469 48.8092
rfemur -13.4796 0.335247 21.3817
rtibia 35.84
rfoot -25.7462 -9.85633
rtoes 18.3534
lfemur -7.37483 1.05818 -17.9318
ltibia 23.9635
lfoot -14.9215 7.01802
ltoes -8.47877
536
root 49.4906 16.6756 -7.64645 12.7624 -86.882 -11.0949
lowerback -2.04699 -1.21715 -2.44035
upperback 5.29335 -1.63169 0.840352
thorax 6.75227 -0.996249 2.11032
lowerneck -1.66463 -9.99525 -10.1155
upperneck -4.00985 -13.1495 13.8869
head 0.717367 -6.60599 5.46338
rclavicle -5.46658e-016 5.66536e-015
rhumerus -32.4759 1.49776 -84.4775
rradius 34.2844
rwrist -9.54932
rhand -23.0625 3.86438
rfingers 7.12502
rthumb 3.38274 -26.0885
lclavicle -5.46658e-016 5.66536e-015
lhumerus -30.9648 3.01619 84.467
lradius 34.0959
lwrist 15.6397
lhand -19.0791 18.9441
lfingers 7.12502
lthumb 7.22879 48.8007
rfemur -13.4955 0.330568 21.3785
rtibia 35.842
rfoot -25.7348 -9.83863
rtoes 18.3627
lfemur -7.3848 1.05154 -17.9356
ltibia 23.965
lfoot -14.9278 7.0374
ltoes -8.46633
537
root 49.4907 16.6757 -7.64617 12.8511 -86.8957 -11.1724
lowerback -2.05608 -1.21301 -2.43326
upperback 5.27396 -1.62601 0.845912
thorax 6.73643 -0.99253 2.11269
lowerneck -1.67051 -9.98344 -10.1188
upperneck -3.986 -13.1346 13.8719
head 0.722567 -6.59755 5.45929
rclavicle -2.82647e-015 -7.05686e-015
rhumerus -32.4926 1.54068 -84.475
rradius 34.2799
rwrist -9.56017
rhand -23.0701 3.86903
rfingers 7.12502
rthumb 3.37538 -26.084
lclavicle -2.82647e-015 -7.05686e-015
lhumerus -30.9818 2.98885 84.4706
lradius 34.0909
lwrist 15.639
lhand -19.0784 18.9381
lfingers 7.12502
lthumb 7.22952 48.7946
rfemur -13.5122 0.324463 21.377
rtibia 35.8438
rfoot -25.7235 -9.82162
rtoes 18.3665
lfemur -7.39667 1.0429 -17.9376
ltibia 23.9667
lfoot -14.9329 7.05889
ltoes -8.45882
538
root 49.4907 16.6758 -7.64592 12.9055 -86.9067 -11.2171
lowerback -2.06502 -1.21083 -2.42863
upperback 5.25543 -1.62292 0.852404
thorax 6.72172 -0.990285 2.11718
lowerneck -1.6704 -9.97062 -10.1239
upperneck -3.9667 -13.1183 13.8572
head 0.725458 -6.58869 5.45614
rclavicle -2.01269e-014 1.6027e-014
rhumerus -32.5106 1.59061 -84.4728
rradius 34.2804
rwrist -9.5762
rhand -23.0768 3.86958
rfingers 7.12502
rthumb 3.36897 -26.0835
lclavicle -2.01269e-014 1.6027e-014
lhumerus -31.0035 2.96308 84.4753
lradius 34.0957
lwrist 15.6435
lhand -19.0801 18.9274
lfingers 7.12502
lthumb 7.2278 48.784
rfemur -13.5268 0.317417 21.3744
rtibia 35.8464
rfoot -25.7143 -9.80659
rtoes 18.3701
lfemur -7.40737 1.0363 -17.9403
ltibia 23.9673
lfoot -14.9347 7.07756
ltoes -8.46732
539
root 49.4908 16.6759 -7.64574 12.9345 -86.9135 -11.2395
lowerback -2.07035 -1.21127 -2.42554
upperback 5.23649 -1.62342 0.859823
thorax 6.70477 -0.989903 2.1233
lowerneck -1.66458 -9.95515 -10.1326
upperneck -3.94864 -13.0987 13.8466
head 0.727228 -6.57841 5.45528
rclavicle 1.1281e-014 -3.03147e-015
rhumerus -32.5335 1.64747 -84.4714
rradius 34.2867
rwrist -9.59307
rhand -23.0824 3.86771
rfingers 7.12502
rthumb 3.36352 -26.0855
lclavicle 1.1281e-014 -3.03147e-015
lhumerus -31.0322 2.94397 84.4788
lradius 34.1076
lwrist 15.6473
lhand -19.082 18.9201
lfingers 7.12502
lthumb 7.22598 48.7767
rfemur -13.5379 0.311626 21.3721
rtibia 35.8501
rfoot -25.708 -9.79471
rtoes 18.3727
lfemur -7.41386 1.02941 -17.9425
ltibia 23.9658
lfoot -14.9346 7.09139
ltoes -8.47282
